<svg xmlns="http://www.w3.org/2000/svg" version="1.1" xmlns:xlink="http://www.w3.org/1999/xlink" xmlns:svgjs="http://svgjs.dev/svgjs" width="2000" height="2250" viewBox="0 0 2000 2250"><g transform="matrix(1,0,0,1,3.410605131648481e-13,0)"><svg viewBox="0 0 320 360" data-background-color="#ffffff" preserveAspectRatio="xMidYMid meet" height="2250" width="2000" xmlns="http://www.w3.org/2000/svg" xmlns:xlink="http://www.w3.org/1999/xlink"><g id="tight-bounds" transform="matrix(1,0,0,1,-5.684341886080802e-14,0)"><svg viewBox="0 0 320 360" height="360" width="320"><g><svg></svg></g><g><svg viewBox="0 0 320 360" height="360" width="320"><g><path d="M85.508 32.884c0-1.117 0.558-2.233 1.675-2.233 1.117 0 2.233 0.558 2.234 2.233 0.558 0 1.675 0 2.233-0.558 2.233 0 4.467-0.558 6.141 0 1.675 0.558 2.792 0.558 4.467 1.117 1.675 0.558 2.792 0 3.908-0.559 2.233-0.558 3.908-1.675 6.141-2.233 1.117-0.558 1.675-0.558 2.792-0.558 1.117-0.558 2.233-0.558 3.908-1.117 2.792-0.558 5.583-1.117 7.817-2.233 2.233-1.117 4.467-1.117 6.699-1.675 1.117 0 1.675-0.558 2.792-1.117 0.558 0 0.558-0.558 1.116-1.116 1.117-0.558 1.675-1.117 2.792-0.559 0.558 0.558 1.675 0.558 2.233 0h0.559c3.35 0 6.7-0.558 10.608 0 0.558 0 1.117 0 1.116 0 1.675-1.117 3.908-1.117 6.142-1.116 0.558 0 1.675 0 2.233 0h0.558c2.233 0 4.467 0 6.142 0.558 1.675 0 2.792 0.558 4.466 1.117 1.675 0 2.792 0 4.467 0.558 1.117 0 2.233 0 3.35 0 0.558 0 1.117 0 1.116 0 2.233 0.558 4.467 0.558 6.7 0.558 1.675 0.558 3.35 1.117 5.583 1.117 0.558 0 1.117 0 1.675 0 0.558 0 1.117 0.558 1.675 0.558l0.558 0.559c2.233 0 3.908 1.117 6.142 1.116 0.558 0 1.675 0 2.233 0.559 1.675 1.117 3.908 1.675 6.141 1.675 1.117 0 1.675 0.558 2.234 1.116 1.675 0.558 2.792 1.117 4.466 1.675 1.117 0.558 2.233 0 3.35 0.558 1.675 0.558 3.908 1.117 5.583 2.792 1.117 1.117 2.233 1.117 3.908 2.233 0.558 0 1.117 0.558 1.675 1.117 1.675 1.117 3.35 2.233 5.025 2.791 0.558 0 1.117 0.558 1.675 0.559 1.675 1.117 3.35 2.792 5.583 3.908 1.117 0.558 1.675 1.117 2.792 1.675h0.558c1.675 1.675 3.908 2.792 5.583 4.466 1.675 1.675 2.792 2.792 5.025 3.909 0 0 0 0 0 0.558 0.558 1.117 1.117 1.675 2.233 2.233 1.117 0.558 1.675 1.117 2.234 1.675 1.675 1.117 3.35 2.233 4.466 3.35 0.558 0.558 1.117 1.117 2.233 2.233 0.558 0.558 1.117 1.117 1.675 1.117 2.233 0.558 3.35 2.233 5.025 3.908 1.117 1.117 2.792 2.792 3.908 3.908 0.558 0.558 1.117 1.675 1.675 2.792 1.117 3.35 2.792 6.7 4.467 9.491 0 0 0 0.558 0.558 1.117v0.558c1.117 1.117 1.675 2.792 2.792 3.908 0.558 0.558 0.558 1.117 1.116 1.675 1.117 1.675 1.675 3.908 2.792 5.583 1.675 2.792 2.792 5.583 3.908 8.375v0.558c0.558 1.117 1.117 2.233 1.675 3.908 0 1.117 1.117 2.233 1.675 3.909 0.558 2.792 2.233 5.583 2.791 8.933 0 0.558 0.558 1.117 0.559 2.233 0.558 1.675 1.117 3.35 1.675 5.025 0 0.558 0.558 1.117 1.116 1.675 1.117 1.117 1.117 2.233 1.117 3.35-0.558 2.233 0 4.467 0.558 6.699 0 0.558 0 1.117 0 2.234 0.558 2.233 1.117 5.025 1.117 7.258 0 0.558 0 1.675 0 2.233 0 1.675 0.558 3.35 1.675 5.025 0 0.558 0.558 0.558 0.558 0.558 0.558 0.558 1.117 1.675 1.675 2.233 0.558 0.558 0.558 0.558 1.117 1.117 1.117 1.117 1.675 2.233 1.675 3.908 0 0.558-0.558 1.675-0.559 2.233 0 0.558 0 1.675 0.559 2.234 0.558 0.558 0.558 1.117 0.558 1.675 0 0.558-0.558 1.117-1.117 1.116v0c-0.558 1.675-2.792 2.233-3.35 3.908-0.558 2.233-1.117 4.467-1.674 6.7-0.558 1.675-0.558 2.792-0.559 4.467 0 1.675-0.558 2.792-0.558 4.466-0.558 2.233-1.117 4.467-1.675 6.7 0 1.117-0.558 2.233-0.558 3.35 0.558 0.558 1.117 1.117 1.675 1.116 1.117 1.117 2.233 2.233 3.349 3.35 0.558 0.558 0.558 1.117 0 1.117-0.558 0.558-1.117 0.558-1.674 0.558-0.558-0.558-1.675-1.117-2.234-1.116-0.558-0.558-1.675-1.117-2.791-0.559 0 1.117-0.558 2.233-0.559 2.792-0.558 1.117-1.117 2.792-1.116 3.908-0.558 2.233-1.675 3.908-2.233 6.142-1.117 2.792-2.233 5.025-3.35 7.258-0.558 1.117-1.117 2.233-1.675 3.35v0c0 1.675-1.675 3.35-2.234 5.024-1.117 2.233-2.233 4.467-3.349 7.258-0.558 1.117-1.117 2.233-1.675 2.792-1.117 2.792-2.233 5.025-3.909 7.258-1.117 1.675-2.233 2.792-3.349 3.35-1.117 1.117-2.233 2.233-3.35 3.35-0.558 0.558-1.117 1.117-1.675 1.675-0.558 0.558-0.558 0.558-1.117 1.116-1.117 1.675-2.792 2.792-3.908 4.467-1.117 1.117-1.675 2.233-3.35 3.35-1.117 1.117-2.233 2.792-3.908 3.35-0.558 0.558-1.117 1.675-1.675 2.233-0.558 0.558-1.117 1.675-1.675 2.233 0 1.117 0.558 2.233 0.558 2.792 0 1.675-1.675 2.233-2.791 1.116-1.675-1.117-1.675-1.117-3.35 0-1.675 1.117-3.35 2.792-5.583 3.35-0.558 0-0.558 0.558-1.117 0.559-1.117 0.558-1.675 1.675-2.792 2.233-1.117 1.117-2.792 1.675-3.908 2.791-0.558 0.558-1.117 0.558-1.675 1.117-1.675 1.117-3.35 1.675-5.024 3.35-0.558 0.558-1.117 0.558-1.675 1.117 0 0.558 0 0.558 0 1.116 0 1.117-1.117 2.233-2.792 1.675-1.675-0.558-2.792 0-4.466 0-1.675 0.558-3.35 1.675-5.025 2.233-0.558 0-1.117 0.558-1.675 1.117-1.675 1.117-3.35 1.675-5.025 2.233-1.117 0-2.233 1.117-3.35 1.117-0.558 0-1.117 0.558-1.675 0.558h-0.558c-2.233 1.675-4.467 2.792-6.7 4.467-0.558 0-0.558 0.558-1.117 1.116-0.558 1.117-1.117 1.675-2.233 1.675-2.792 0-3.908 2.233-3.35 4.467 0 0.558 0.558 1.117 0.559 1.675 0.558 1.117 0 2.233-0.559 2.791-0.558 0.558-2.233 0.558-2.791-0.558-1.117-1.117-1.675-2.233-2.234-3.908-0.558-1.117-1.675-2.233-2.791-2.792-1.117-0.558-2.233-0.558-3.35 0-0.558 0-0.558 0.558-1.117 0.558-1.117 1.117-2.792 1.675-4.466 1.117-0.558 0-1.675 0-1.675 0.558-0.558 0.558-0.558 1.675 0 2.234 1.117 1.117 0.558 2.233 0.558 3.908 0 2.233-1.675 3.35-3.908 2.233-0.558-0.558-1.117-0.558-1.675-1.117-0.558 0-0.558-0.558-0.558-1.116-0.558-0.558-0.558-1.675-1.117-2.792-1.117 0.558-2.233 0.558-3.35 1.117-0.558 0-1.117 0.558-1.675 0.558-1.675 0-2.233 0-2.791-1.675-0.558-1.675-1.675-1.675-2.792-2.233-2.233-0.558-5.025-0.558-7.258-1.675h-0.558c-2.233-1.675-4.467-1.675-7.258-1.675-1.675 0-3.35 0.558-5.025 0.558-1.675 0-2.792 0.558-3.908 1.675-0.558 0.558-1.117 1.117-1.675 1.117-0.558-0.558-0.558-1.117-1.117-1.675v-0.558c0-0.558-0.558-1.117-1.116-0.559-1.117 0.558-2.233-0.558-3.35-1.116-0.558-0.558-1.675-1.675-1.675-2.792-0.558-0.558-1.117-1.117-1.675-1.116-1.117 0-2.792-0.558-3.908-0.559-0.558 0-1.117 0-1.117-0.558-0.558-0.558-1.117-0.558-2.233-0.558-0.558 0-0.558-0.558-1.117-0.559 1.117 1.117 1.675 2.233 2.233 3.35 0 0.558 0.558 0.558 0.559 1.117 0.558 1.117 0 1.675-1.675 1.675-1.117 0-1.117 0-1.675 0.558 0 1.117 0 1.675 0 2.792 0 0.558 0 1.117-1.117 1.675 0 0-0.558 0-0.558 0.558-0.558 0.558-0.558 1.117 0 1.675 1.675 1.117 2.792 1.675 4.466 2.233 1.675 0 1.675 1.117 2.234 2.233 0.558 1.117 0 1.675-0.559 2.792-1.117 1.117-2.233 2.233-3.35 3.35-1.675 0.558-2.792 2.233-4.466 2.233-1.117 0-2.233-0.558-2.792-1.675-0.558-2.792-0.558-5.025 0.559-7.816 0-0.558 0.558-1.117 0-1.675-5.025 0-5.025-1.117-5.025-1.675 0-1.117 0.558-1.675 0.558-2.792 0.558-1.117 0-1.675-1.675-2.233-0.558 0-1.117 0-1.675 0-0.558 0-0.558-0.558-1.675-0.558 1.117-0.558 1.675-0.558 2.792-1.117-0.558-2.233-1.117-3.908-2.792-5.025-0.558-0.558-1.117-1.117-1.116-2.233 0-1.675-1.117-2.792-1.675-3.908-1.117-1.675-3.35-2.233-5.025-2.233-1.675-0.558-2.792-0.558-4.467-1.117-1.675-0.558-3.35-2.233-5.024-2.792-0.558-0.558-1.117-1.117-2.234-1.674-2.233-1.117-3.908-2.792-5.583-4.467-1.117-0.558-1.675-1.675-2.791-2.233-1.117-1.117-1.675-2.233-2.792-2.792-1.117-1.117-2.233-2.233-3.908-3.35-1.675-1.117-2.792-2.792-4.467-4.466-1.117-1.675-2.792-2.792-4.466-3.908-0.558 0-1.117 0-1.675 0-0.558 0-1.117 0.558-1.675 0.558-1.675 0.558-2.792 1.675-4.467 2.233 0.558-0.558 0.558-0.558 0-1.675-0.558-0.558-1.117-1.117-1.674-1.116-1.117 0-2.233 0-3.35 0-2.233 0-4.467 0.558-6.7 0.558-1.675 0-3.908 0.558-5.583 1.117 0.558 1.117 0.558 1.675 1.116 2.791-1.117 0.558-2.233 0.558-3.35 0.558-0.558 0-1.675 0.558-2.233 1.117-0.558 0-0.558 0.558-1.116 0-1.117-0.558-2.233 0-3.35 0.558h-0.559c0 0 0-0.558 0.559-0.558 0.558-0.558 1.117-1.117 1.675-1.675 0.558-0.558 1.117-0.558 2.233-1.117-0.558-0.558-0.558-1.117-0.558-1.116-0.558-0.558-1.117-0.558-1.675 0-0.558 0.558-1.117 1.117-1.675 1.675-0.558 0.558-1.117 0.558-1.675 0-0.558-0.558-0.558-1.117 0-1.675 0-0.558 0.558-1.117 1.116-1.675 0.558-0.558 0.558-1.117 1.117-1.675-1.117-1.117-1.675-2.233-2.792-2.792-1.675-1.117-3.35-2.792-4.466-4.466-1.117-2.233-2.792-3.908-5.025-5.025-0.558-0.558-1.117-1.117-1.675-1.675-0.558-0.558-0.558-0.558-1.116-1.117-1.675 0.558-2.792 1.675-4.467 2.234-0.558 0-0.558 0.558-1.117 1.116-0.558 1.117-1.675 1.117-2.791 1.117-0.558 0-1.117-0.558-0.558-1.117 0.558-1.117 1.117-2.233 2.791-1.675 0 0 0.558 0 0.558-0.558 1.117-1.117 2.233-2.792 3.909-3.908-0.558-1.675-1.675-2.792-2.234-3.908-0.558-0.558-0.558-1.117-0.558-2.234 0-0.558 0-0.558-0.558-1.116 0 0-0.558 0-1.117 0.558-0.558 0.558-1.675 1.117-2.791 0 0-0.558 0-1.117 0.558-1.675l0.558-0.558c1.675-0.558 1.675-2.233 1.675-3.908v-0.559c-0.558-1.117-0.558-1.675 0.558-2.791 1.675-1.117 3.35-3.35 3.909-5.025 0.558-1.117 1.675-1.675 2.791-2.792 1.117-1.117 2.233-2.233 2.792-3.908h0.558c2.233 0.558 2.792-1.117 3.908-2.791 0-0.558 0-1.117 0.559-1.117 1.117-1.117 1.117-2.233 0.558-3.908 0-0.558-0.558-1.675-0.558-2.233 0-0.558 0-0.558-0.559-1.117-1.675-1.117-1.675-2.233 0-3.35 1.117-0.558 1.117-1.675 1.675-2.233 0.558-1.117 0.558-2.233 0.559-3.908-0.558-1.675-0.558-3.908-1.117-5.583-0.558-2.233-1.117-5.025-1.675-7.259 0-0.558 0-0.558 0-1.116 0-1.675 0-2.792-0.558-4.467-0.558-0.558-0.558-1.675-0.559-2.233-0.558-1.675-1.117-2.792-2.791-3.35-1.675-1.117-3.908-1.675-5.583-2.791-0.558-0.558-1.117 0-1.675 0.558-0.558 1.117-1.675 2.233-2.234 3.35-0.558 0.558-1.117 1.675-1.675 2.791-1.117 1.117-3.35 2.233-5.024 0.559-0.558-1.117-1.117-1.675 0-2.792 1.117-1.675 2.233-3.35 3.908-4.466 0.558-0.558 1.117-1.675 1.675-2.234 0.558-1.117 0.558-2.233 0.558-3.35-0.558-2.233-1.117-4.467-1.117-7.258 0-2.792 0-5.025 0.559-7.816 0.558-1.117 0.558-2.792 1.116-3.908 0-0.558 0.558-1.675 1.117-2.233 1.117-1.117 2.233-2.233 2.792-3.909 0.558-1.675 1.675-3.35 1.675-5.024 0-0.558 0.558-1.117 0.558-1.675 0-0.558 0.558-1.675 0.558-2.234-0.558-1.675 0-2.792 0.558-3.908 0.558-1.117 1.117-2.792 1.675-3.908 1.117-2.233 1.117-5.025 3.35-7.258 0.558-1.117 1.117-2.233 1.675-3.35 0.558-2.233 1.675-3.908 2.792-5.583 0.558-0.558 0.558-0.558 0.558-1.117 0.558-1.675 1.675-3.35 2.792-5.025 1.117-1.675 1.117-3.35 1.675-5.024 0-0.558 0-1.117 0.558-1.675 1.675-1.675 1.117-3.908 0.558-6.142-1.117-2.792-1.675-5.583-1.116-8.374 0-0.558 0-1.117 0.558-1.117 0.558-1.117 0.558-1.675 1.117-2.792v-0.558c1.117-1.117 2.233-2.792 3.908-3.35 2.233-1.117 4.467-1.675 7.258-2.233 2.233 0 4.467-1.117 6.141-3.35 0-0.558 0.558-0.558 1.117-1.117l0.558-0.558c0.558-1.117 1.117-1.675 1.675-2.233 1.117-1.117 2.233-2.792 3.35-3.908 1.117-1.117 2.233-2.792 3.908-4.467l0.559-0.558c1.117-1.117 2.233-2.233 3.349-2.792 1.117-1.117 2.233-2.233 3.35-3.35 1.117-1.117 1.675-2.233 2.792-3.35 1.117-0.558 2.233-1.675 3.35-2.791 1.117-1.117 2.233-2.233 2.791-2.792 1.117-1.117 2.792-2.233 3.909-2.791 1.117-0.558 2.233-1.117 2.791-2.792 0.558-1.675 1.117-2.792 1.675-4.466 0-1.117 0.558-2.233 1.117-3.35 0.558 0 1.117 0 2.233-0.558-0.558-0.558-1.117-0.558-1.117-1.117 0-0.558 0.558-1.117 0.559-1.117 0-0.558 0.558-1.117 0.558-1.675 0 0 0.558 0 0.558-0.558 0 0 0.558 0 0.559-0.558-1.117 0.558-1.675 0-2.234-0.559 0.558 0.558 1.117 0.558 2.234 1.117 0 0 0.558 0 0.558-0.558 0-0.558 0-1.117 0-1.117 0 0-0.558 0-1.117 0-0.558 0-1.117 0.558-1.675 0.558zM182.097 295.292c0-0.558-0.558-0.558-0.559-1.117-0.558-1.117 0-1.675 0.559-2.233 0.558-0.558 1.117-0.558 2.233-0.558 1.117 0.558 1.675 1.117 1.675 2.233 0 0.558 0 1.675 0 2.233 0.558 2.233 0.558 2.233 2.791 2.233 1.117 0 2.233 0 3.35 0 2.233-0.558 4.467-1.675 6.7-2.233 2.233-0.558 4.467-1.117 6.7-1.675 0.558 0 1.117 0 2.233 0 2.233 0.558 3.908 0 5.583-1.117 0.558-0.558 1.675-0.558 2.233-1.116 1.117-0.558 2.233-0.558 3.35-1.117 2.792-1.675 5.583-2.792 7.817-4.466 1.675-1.117 3.35-2.233 5.024-3.35 1.675-1.117 3.35-2.233 5.025-3.35 1.117-0.558 2.792-1.675 3.908-2.792 2.233-1.675 3.908-3.35 6.142-4.466 1.117-0.558 1.675-1.117 2.233-1.675 1.117-0.558 1.675-1.675 2.792-2.233 0.558-0.558 1.117-1.117 2.233-1.675 0.558-0.558 0.558-0.558 0.558-1.117 1.675-1.117 3.35-3.35 4.467-5.025 1.117-1.117 2.233-2.233 3.35-3.908 1.675-1.675 2.792-3.908 4.466-6.141 1.117-1.117 2.233-2.792 2.792-3.909 1.117-2.233 2.233-4.467 3.908-6.141v-0.558c1.117-2.233 2.233-4.467 3.35-6.7 1.675-2.792 2.792-6.141 4.466-8.933 0.558-1.117 1.117-2.233 1.117-3.35 1.117-2.233 1.675-4.467 2.233-6.7 0-0.558 0-0.558 0.559-1.116 1.675-3.35 2.792-6.7 3.349-10.608 0.558-2.233 1.117-4.467 1.675-6.7 1.117-3.35 1.117-6.141 1.675-9.491 0.558-2.233 0.558-5.025 0.559-7.258 0.558-3.35 0.558-7.258 0-10.608 0-2.792-0.558-6.141-0.559-8.933 0-2.792-0.558-5.025-1.116-7.817-0.558-2.792-1.117-5.025-1.675-7.816-1.117-2.233-1.675-4.467-2.234-7.258-0.558-2.233-1.675-3.908-1.674-6.142 0-1.675-0.558-3.35-2.234-3.908-1.675-0.558-2.792-1.117-4.466-2.233-3.35-2.233-5.025-5.025-4.467-8.375 0-1.675 0.558-3.908 1.117-5.583 0.558-1.675 1.117-3.35 0-4.467-0.558-1.675-1.675-2.792-2.233-3.908-1.117-1.675-1.675-2.792-2.792-3.908-1.117-2.233-2.233-4.467-3.908-6.141-2.233-2.792-3.908-5.583-6.7-7.817l-0.558-0.558c-1.675-2.233-3.35-4.467-5.583-6.142-1.117-1.117-2.233-2.233-3.35-2.791-0.558-0.558-1.117-1.117-2.233-1.675-1.675-1.117-3.35-1.675-4.467-2.792-1.675-1.675-3.908-2.792-5.583-3.908 0 0-0.558 0-0.558-0.558-2.233-1.117-3.908-1.675-6.142-2.792-2.233-1.117-4.467-1.675-6.7-1.675-0.558 0-0.558 0-1.116 0-0.558-0.558-1.675-0.558-2.233-0.558-0.558 0-0.558 0-1.117 0-1.117-0.558-2.792 0-3.908 0-2.233 0.558-4.467 0.558-6.7-0.558-2.792-1.117-5.025-2.233-7.258-3.35-1.675-1.117-2.792-2.233-4.467-3.35-3.35-2.792-6.7-6.141-10.608-8.933 0.558-2.792-0.558-3.35-2.791-3.35-1.117 0-2.233 0.558-3.35 1.117-0.558 0.558-0.558 0.558-1.117 1.116-1.675 1.117-2.792 2.792-4.466 3.909-2.792 1.675-3.908 1.117-6.142 0-0.558-0.558-1.117-1.117-1.675-1.675-1.117-1.117-2.233-2.792-2.791-3.909-1.117-2.233-3.35-2.233-5.583-2.233-1.117 0-2.792 0.558-3.908 0.558-2.233 0-4.467 1.117-5.584 2.792-1.117 1.675-2.233 3.35-3.908 5.025-0.558 0.558-1.675 1.117-2.233 2.233-1.117 1.117-2.233 1.117-3.35 0-0.558-0.558-1.117-0.558-1.675-1.117-0.558 0.558-1.117 1.117-1.117 1.675-0.558 1.117-1.117 2.233-1.674 3.909-0.558 1.675-1.675 3.35-2.792 4.466-0.558 0.558-0.558 0.558-1.117 1.117-0.558 1.117-2.233 1.675-3.35 1.675-1.117 1.117-2.233 2.792-2.791 3.908-0.558 1.117-1.117 2.233-1.675 3.908-0.558 0.558-0.558 1.675-1.117 2.233-0.558 1.117-0.558 1.675-0.558 2.792 0.558 1.675-0.558 2.233-2.233 2.791-1.117 0-1.117 0-1.675 1.117 0 1.675 0.558 2.792 1.116 4.467 0.558 0.558 1.117 1.675 1.117 2.233 0 1.117 0.558 1.675 1.675 2.233 0.558 0.558 1.117 1.117 1.675 1.117 0.558 0 0.558 0.558 1.117 0.558 0.558 0.558 1.117 0 1.116-0.558 0.558-1.675 1.117-3.35 1.117-5.025 0.558-2.233 0.558-3.908 1.116-6.142 0.558-1.117 1.117-1.675 1.675-2.233 0 0 0.558 0 1.117 0v0.559c-0.558 2.792-1.675 6.141-2.233 8.933-0.558 1.117-0.558 2.233-1.117 3.349 0 0.558-0.558 1.117-1.116 1.117-1.117 0.558-2.233 1.117-3.35 1.117-0.558 0-1.117 0-1.675 0-1.117-0.558-2.233-1.675-3.35-2.234-0.558-0.558-1.117-1.117-1.675-1.674-0.558-1.117-1.117-2.233-1.675-3.35-0.558-1.117-1.117-1.675-2.233-2.234-0.558-0.558-1.117-0.558-1.675-1.116-1.117-1.117-2.233-1.675-3.908-1.675-0.558 0-1.675 0-2.234 0-0.558 0-1.675 0.558-2.233 1.116-1.117 0.558-1.675 0.558-2.791 0-2.792-1.117-5.583-0.558-8.375 0.559-1.117 0.558-2.233 1.117-3.35 1.116-2.792 0-5.025 0-7.816 0-2.792 0-5.025-0.558-7.817-1.116-1.117 0-2.233 0-3.35 0-2.233 0.558-2.792 2.233-2.233 4.466 0.558 2.233 1.117 5.025 1.117 7.258 0 1.675 0 3.35 0 5.025 0 1.117 0 1.675 0 2.792 0 1.675-0.558 3.35-0.559 5.025-0.558 3.35-2.233 6.141-4.466 8.374-1.675 1.675-3.908 3.35-6.142 3.908-1.117 0.558-2.233 1.117-3.908 1.675-2.792 1.117-5.025 3.35-6.7 6.142-0.558 1.117-1.117 2.233-1.674 3.35-1.117 1.675-1.675 2.792-2.792 4.466-0.558 1.117-1.675 2.233-2.233 3.35-0.558 1.117-1.675 1.675-1.675 2.792-1.117 2.233-1.675 4.467-2.792 6.699-0.558 1.117-0.558 2.792-1.116 3.909-1.117 2.233-1.117 4.467-1.117 7.258 0 0.558 0 1.117 0 2.233 0 2.792-0.558 6.141-0.558 8.933 0 2.792 0 5.583 0.558 8.375 0 1.117 0 2.792 0 3.908 0 2.233 0.558 5.025 0.558 7.258 0 2.233 0 5.025 1.117 7.258v0.558c0.558 2.233 0.558 4.467 1.116 6.7 0 0.558 0 1.117 0.559 1.675 1.117 3.35 1.675 6.141 2.791 9.491 0.558 2.233 1.675 4.467 2.234 6.7 0.558 2.233 2.792 4.467 3.349 7.258v0c1.675 3.35 3.35 6.7 5.584 10.05 0.558 1.117 1.675 2.233 2.233 3.35 1.117 1.675 1.675 3.35 2.791 4.466 0.558 1.117 1.675 2.233 2.234 2.792 0.558 1.117 1.117 2.233 2.233 3.35 1.117 1.117 2.233 2.792 3.35 3.908 1.675 2.792 3.908 5.025 6.141 6.7 1.117 1.117 2.233 1.675 3.35 2.791 0.558 0.558 1.117 0.558 1.117 1.117 0.558 0.558 1.117 1.117 2.233 1.675 4.467 2.233 7.816 5.583 11.725 8.933 1.675 1.675 3.35 3.35 5.583 4.466 2.233 1.675 3.908 3.35 6.7 3.908 0 0 0.558 0 0.558 0.559 1.117 1.117 2.792 1.675 3.908 2.233 2.233 1.117 5.025 2.233 7.258 3.35 0.558 0.558 1.675 0.558 2.233 1.117 1.675 0.558 3.35 1.117 5.025 1.674 1.675 0.558 2.792 1.117 4.467 1.117h0.558c1.117 0.558 1.675 0.558 2.792 0 0.558 0 1.117 0 1.116 0.558 0 0.558 0.558 0.558 1.117 0.559 0.558 0 1.117 0 2.233 0 0.558-0.558 0.558-1.117 1.117-2.234 0.558 0.558 1.117 0.558 1.116 0.559 0.558 1.117 1.675 1.117 2.792 1.116h0.558c1.117 0 1.675 0 2.233-0.558 0-0.558 1.117-0.558 1.675-0.558 1.675 0.558 3.35 0.558 5.025 1.116 1.117 0.558 2.792 0.558 3.35-0.558 0.558-0.558 1.117-1.117 2.233-0.558 1.117 0.558 1.675 0.558 2.792 0 0.558 0 1.117 0 1.117 0 1.675 0.558 2.792 0.558 4.466 1.116 2.233 0.558 2.233 0.558 3.908-1.116 0.558-0.558 1.675-0.558 2.233 0 0.558 1.117 0.558 1.675 0.559 2.791 0.558 0 0.558 0 1.116-0.558 0-1.117 0.558-1.117 1.675-1.675 0.558 0.558 0.558 0.558 1.117 0.558 1.117 1.117 1.675 1.117 2.233-0.558 0-0.558 0-1.117 0.559-1.116 0.558 0 1.117 0.558 1.116 0.558 0.558 1.117 1.675 1.675 2.233 2.791 1.117 1.117 2.792 1.117 3.35 0 0.558-0.558 1.117-0.558 1.675-0.558 0-0.558 0-1.117 0-1.675 1.675 1.117 1.117 1.117 0.559 1.117zM89.417 34.559c1.675 0.558 2.792 0.558 3.349-0.558-1.117 0.558-2.233-0.558-3.349 0.558z" fill="#471aa0" fill-rule="nonzero" stroke="none" stroke-width="1" stroke-linecap="butt" stroke-linejoin="miter" stroke-miterlimit="10" stroke-dasharray="" stroke-dashoffset="0" font-family="none" font-weight="none" font-size="none" text-anchor="none" style="mix-blend-mode: normal" data-fill-palette-color="tertiary"></path></g><g transform="matrix(1,0,0,1,95.80691642651297,90)"><svg viewBox="0 0 128.38616714697406 180" height="180" width="128.38616714697406"><g><svg viewBox="0 0 128.38616714697406 180" height="180" width="128.38616714697406"><g><svg viewBox="0 0 128.38616714697406 180" height="180" width="128.38616714697406"><g><svg viewBox="0 0 128.38616714697406 180" height="180" width="128.38616714697406"><g id="textblocktransform"><svg viewBox="0 0 128.38616714697406 180" height="180" width="128.38616714697406" id="textblock"><g><svg viewBox="0 0 128.38616714697406 180" height="180" width="128.38616714697406"><g transform="matrix(1,0,0,1,0,0)"><svg width="128.38616714697406" viewBox="1.9 -34.25 24.75 34.7" height="180" data-palette-color="#471aa0"><path d="M13.65 0.45L13.65 0.45Q10.4 0.45 7.5-0.33 4.6-1.1 1.9-2.5L1.9-2.5Q2.3-4.5 2.43-6.6 2.55-8.7 2.55-10.6L2.55-10.6Q3.75-10.95 5.15-11.05 6.55-11.15 7.8-11.15L7.8-11.15Q8.05-8.15 8.6-6.43 9.15-4.7 10.38-3.95 11.6-3.2 13.65-3.2L13.65-3.2Q16.45-3.2 17.65-4.38 18.85-5.55 18.85-7.05L18.85-7.05Q18.85-8.55 17.68-9.6 16.5-10.65 14.65-11.53 12.8-12.4 10.73-13.38 8.65-14.35 6.83-15.73 5-17.1 3.8-19.15 2.6-21.2 2.6-24.25L2.6-24.25Q2.6-27.8 4.2-29.98 5.8-32.15 8.43-33.2 11.05-34.25 14.25-34.25L14.25-34.25Q16.15-34.25 18.03-33.95 19.9-33.65 21.53-33.18 23.15-32.7 24.1-32.05L24.1-32.05Q24.1-30.1 24.15-28.03 24.2-25.95 24.4-24.75L24.4-24.75Q23.5-24.2 22.03-23.98 20.55-23.75 19.4-23.75L19.4-23.75Q19-26.5 18.23-28 17.45-29.5 16.32-30.1 15.2-30.7 13.75-30.7L13.75-30.7Q11.9-30.7 10.68-29.85 9.45-29 9.45-27.3L9.45-27.3Q9.45-25.6 10.7-24.45 11.95-23.3 13.9-22.38 15.85-21.45 18.05-20.48 20.25-19.5 22.2-18.13 24.15-16.75 25.4-14.73 26.65-12.7 26.65-9.7L26.65-9.7Q26.65-6.7 25.18-4.4 23.7-2.1 20.83-0.83 17.95 0.45 13.65 0.45Z" opacity="1" transform="matrix(1,0,0,1,0,0)" fill="#471aa0" class="wordmark-text-0" data-fill-palette-color="primary" id="text-0"></path></svg></g></svg></g></svg></g></svg></g><g></g></svg></g></svg></g></svg></g></svg></g><defs></defs></svg><rect width="320" height="360" fill="none" stroke="none" visibility="hidden"></rect></g></svg></g></svg>